mtllib beehive_empty_iconic.mtl
o Matrix
g Matrix
usemtl beehive_empty_iconic_AtlasMaterial
v -2.5 10.5 -2.5
v -2.5 10.5 3.5
v 3.5 10.5 3.5
v 3.5 10.5 -2.5
v -4.5 4.5 -4.5
v -4.5 4.5 5.5
v -3.5 4.5 5.5
v -3.5 4.5 -4.5
v -4.5 8.5 -4.5
v -4.5 8.5 5.5
v -3.5 8.5 5.5
v -3.5 8.5 -4.5
v 4.5 4.5 -4.5
v 4.5 4.5 5.5
v 5.5 4.5 5.5
v 5.5 4.5 -4.5
v 4.5 8.5 -4.5
v 4.5 8.5 5.5
v 5.5 8.5 5.5
v 5.5 8.5 -4.5
v -3.5 4.5 -3.5
v 4.5 4.5 -3.5
v -3.5 4.5 4.5
v 4.5 4.5 4.5
v -3.5 5.5 -3.5
v -3.5 5.5 4.5
v -2.5 5.5 4.5
v -2.5 5.5 -3.5
v -3.5 8.5 -3.5
v 4.5 8.5 -3.5
v -3.5 8.5 4.5
v 4.5 8.5 4.5
v -3.5 9.5 -3.5
v -3.5 9.5 4.5
v -2.5 9.5 4.5
v -2.5 9.5 -3.5
v -2.5 5.5 -2.5
v 3.5 5.5 -2.5
v 3.5 5.5 -3.5
v -2.5 5.5 3.5
v 3.5 5.5 4.5
v 3.5 5.5 3.5
v -2.5 9.5 -2.5
v 3.5 9.5 -2.5
v 3.5 9.5 -3.5
v -2.5 9.5 3.5
v 3.5 9.5 4.5
v 3.5 9.5 3.5
v 4.5 5.5 4.5
v 4.5 5.5 -3.5
v 4.5 9.5 4.5
v 4.5 9.5 -3.5
v -0.5 2.5 4.5
v -0.5 2.5 5.5
v 1.5 2.5 5.5
v 1.5 2.5 4.5
v -0.5 3.5 3.5
v -0.5 3.5 4.5
v 1.5 3.5 4.5
v 1.5 3.5 3.5
v -3.5 1.5 -3.5
v -3.5 1.5 -2.5
v -2.5 1.5 -2.5
v -2.5 1.5 -3.5
v -3.5 1.5 3.5
v -3.5 1.5 4.5
v -2.5 1.5 4.5
v -2.5 1.5 3.5
v 3.5 1.5 -3.5
v 3.5 1.5 -2.5
v 4.5 1.5 -2.5
v 4.5 1.5 -3.5
v 3.5 1.5 3.5
v 3.5 1.5 4.5
v 4.5 1.5 4.5
v 4.5 1.5 3.5
v -4.5 1.5 5.5
v -4.5 1.5 -4.5
v -3.5 1.5 -4.5
v -3.5 1.5 5.5
v -4.5 5.5 5.5
v -4.5 5.5 -4.5
v -3.5 5.5 -4.5
v -3.5 5.5 5.5
v 4.5 1.5 5.5
v 4.5 1.5 -4.5
v 5.5 1.5 -4.5
v 5.5 1.5 5.5
v 4.5 5.5 5.5
v 4.5 5.5 -4.5
v 5.5 5.5 -4.5
v 5.5 5.5 5.5
v -2.5 4.5 -3.5
v -2.5 4.5 4.5
v -2.5 8.5 -3.5
v -2.5 8.5 4.5
v -2.5 4.5 -2.5
v 3.5 4.5 -3.5
v 3.5 4.5 -2.5
v -2.5 4.5 3.5
v 3.5 4.5 3.5
v 3.5 4.5 4.5
v -2.5 8.5 -2.5
v 3.5 8.5 -3.5
v 3.5 8.5 -2.5
v -2.5 8.5 3.5
v 3.5 8.5 3.5
v 3.5 8.5 4.5
v -0.5 2.5 3.5
v 1.5 2.5 3.5
v -0.5 3.5 5.5
v 1.5 3.5 5.5
v -3.5 0.5 -2.5
v -3.5 0.5 -3.5
v -2.5 0.5 -3.5
v -2.5 0.5 -2.5
v -3.5 0.5 4.5
v -3.5 0.5 3.5
v -2.5 0.5 3.5
v -2.5 0.5 4.5
v 3.5 0.5 -2.5
v 3.5 0.5 -3.5
v 4.5 0.5 -3.5
v 4.5 0.5 -2.5
v 3.5 0.5 4.5
v 3.5 0.5 3.5
v 4.5 0.5 3.5
v 4.5 0.5 4.5
v -0.5 1.5 4.5
v -3.5 3.5 4.5
v 4.5 3.5 4.5
v 1.5 1.5 4.5
v -4.5 3.5 5.5
v 5.5 3.5 5.5
v -0.5 1.5 5.5
v 1.5 1.5 5.5
vn 0.0 1.0 0.0
vn 0.0 -1.0 0.0
vn -1.0 0.0 0.0
vn 1.0 0.0 0.0
vn 0.0 0.0 -1.0
vn 0.0 0.0 1.0
vt 0.015625 0.171875
vt 0.015625 0.015625
vt 0.03125 0.015625
vt 0.03125 0.171875
vt 0.0625 0.171875
vt 0.0625 0.015625
vt 0.078125 0.015625
vt 0.078125 0.171875
vt 0.109375 0.171875
vt 0.109375 0.015625
vt 0.125 0.015625
vt 0.125 0.171875
vt 0.15625 0.171875
vt 0.15625 0.015625
vt 0.171875 0.015625
vt 0.171875 0.171875
vt 0.203125 0.171875
vt 0.203125 0.015625
vt 0.21875 0.015625
vt 0.21875 0.171875
vt 0.25 0.171875
vt 0.25 0.015625
vt 0.265625 0.015625
vt 0.265625 0.171875
vt 0.296875 0.171875
vt 0.296875 0.015625
vt 0.3125 0.015625
vt 0.3125 0.171875
vt 0.34375 0.171875
vt 0.34375 0.015625
vt 0.359375 0.015625
vt 0.359375 0.171875
vt 0.390625 0.140625
vt 0.390625 0.015625
vt 0.40625 0.015625
vt 0.40625 0.140625
vt 0.4375 0.140625
vt 0.4375 0.015625
vt 0.453125 0.015625
vt 0.453125 0.140625
vt 0.484375 0.140625
vt 0.484375 0.015625
vt 0.5 0.015625
vt 0.5 0.140625
vt 0.53125 0.140625
vt 0.53125 0.015625
vt 0.546875 0.015625
vt 0.546875 0.140625
vt 0.578125 0.140625
vt 0.578125 0.015625
vt 0.59375 0.015625
vt 0.59375 0.140625
vt 0.625 0.140625
vt 0.625 0.015625
vt 0.640625 0.015625
vt 0.640625 0.140625
vt 0.671875 0.140625
vt 0.671875 0.015625
vt 0.6875 0.015625
vt 0.6875 0.140625
vt 0.71875 0.140625
vt 0.71875 0.015625
vt 0.734375 0.015625
vt 0.734375 0.140625
vt 0.765625 0.109375
vt 0.765625 0.015625
vt 0.859375 0.015625
vt 0.859375 0.109375
vt 0.890625 0.109375
vt 0.890625 0.015625
vt 0.984375 0.015625
vt 0.984375 0.109375
vt 0.015625 0.25
vt 0.015625 0.203125
vt 0.171875 0.203125
vt 0.171875 0.25
vt 0.203125 0.25
vt 0.203125 0.203125
vt 0.359375 0.203125
vt 0.359375 0.25
vt 0.390625 0.25
vt 0.390625 0.203125
vt 0.546875 0.203125
vt 0.546875 0.25
vt 0.578125 0.25
vt 0.578125 0.203125
vt 0.734375 0.203125
vt 0.734375 0.25
vt 0.765625 0.25
vt 0.765625 0.203125
vt 0.921875 0.203125
vt 0.921875 0.25
vt 0.015625 0.328125
vt 0.015625 0.28125
vt 0.171875 0.28125
vt 0.171875 0.328125
vt 0.203125 0.328125
vt 0.203125 0.28125
vt 0.359375 0.28125
vt 0.359375 0.328125
vt 0.390625 0.328125
vt 0.390625 0.28125
vt 0.515625 0.28125
vt 0.515625 0.328125
vt 0.546875 0.328125
vt 0.546875 0.28125
vt 0.671875 0.28125
vt 0.671875 0.328125
vt 0.703125 0.328125
vt 0.703125 0.28125
vt 0.828125 0.28125
vt 0.828125 0.328125
vt 0.859375 0.328125
vt 0.859375 0.28125
vt 0.984375 0.28125
vt 0.984375 0.328125
vt 0.015625 0.40625
vt 0.015625 0.359375
vt 0.140625 0.359375
vt 0.140625 0.40625
vt 0.171875 0.40625
vt 0.171875 0.359375
vt 0.296875 0.359375
vt 0.296875 0.40625
vt 0.328125 0.40625
vt 0.328125 0.359375
vt 0.453125 0.359375
vt 0.453125 0.40625
vt 0.484375 0.390625
vt 0.484375 0.359375
vt 0.546875 0.359375
vt 0.546875 0.390625
vt 0.578125 0.390625
vt 0.578125 0.359375
vt 0.640625 0.359375
vt 0.640625 0.390625
vt 0.671875 0.390625
vt 0.671875 0.359375
vt 0.71875 0.359375
vt 0.71875 0.390625
vt 0.75 0.390625
vt 0.75 0.359375
vt 0.796875 0.359375
vt 0.796875 0.390625
vt 0.828125 0.375
vt 0.828125 0.359375
vt 0.984375 0.359375
vt 0.984375 0.375
vt 0.015625 0.453125
vt 0.015625 0.4375
vt 0.140625 0.4375
vt 0.140625 0.453125
vt 0.171875 0.453125
vt 0.171875 0.4375
vt 0.296875 0.4375
vt 0.296875 0.453125
vt 0.328125 0.453125
vt 0.328125 0.4375
vt 0.453125 0.4375
vt 0.453125 0.453125
vt 0.484375 0.453125
vt 0.484375 0.4375
vt 0.609375 0.4375
vt 0.609375 0.453125
vt 0.640625 0.453125
vt 0.640625 0.4375
vt 0.765625 0.4375
vt 0.765625 0.453125
vt 0.796875 0.453125
vt 0.796875 0.4375
vt 0.921875 0.4375
vt 0.921875 0.453125
vt 0.015625 0.5
vt 0.015625 0.484375
vt 0.140625 0.484375
vt 0.140625 0.5
vt 0.171875 0.5
vt 0.171875 0.484375
vt 0.296875 0.484375
vt 0.296875 0.5
vt 0.328125 0.5
vt 0.328125 0.484375
vt 0.453125 0.484375
vt 0.453125 0.5
vt 0.484375 0.5
vt 0.484375 0.484375
vt 0.609375 0.484375
vt 0.609375 0.5
vt 0.640625 0.5
vt 0.640625 0.484375
vt 0.765625 0.484375
vt 0.765625 0.5
vt 0.796875 0.5
vt 0.796875 0.484375
vt 0.921875 0.484375
vt 0.921875 0.5
vt 0.015625 0.546875
vt 0.015625 0.53125
vt 0.140625 0.53125
vt 0.140625 0.546875
vt 0.171875 0.546875
vt 0.171875 0.53125
vt 0.296875 0.53125
vt 0.296875 0.546875
vt 0.328125 0.546875
vt 0.328125 0.53125
vt 0.453125 0.53125
vt 0.453125 0.546875
vt 0.484375 0.546875
vt 0.484375 0.53125
vt 0.609375 0.53125
vt 0.609375 0.546875
vt 0.640625 0.546875
vt 0.640625 0.53125
vt 0.765625 0.53125
vt 0.765625 0.546875
vt 0.796875 0.546875
vt 0.796875 0.53125
vt 0.890625 0.53125
vt 0.890625 0.546875
vt 0.015625 0.59375
vt 0.015625 0.578125
vt 0.109375 0.578125
vt 0.109375 0.59375
vt 0.140625 0.59375
vt 0.140625 0.578125
vt 0.234375 0.578125
vt 0.234375 0.59375
vt 0.265625 0.59375
vt 0.265625 0.578125
vt 0.359375 0.578125
vt 0.359375 0.59375
vt 0.390625 0.59375
vt 0.390625 0.578125
vt 0.484375 0.578125
vt 0.484375 0.59375
vt 0.515625 0.59375
vt 0.515625 0.578125
vt 0.609375 0.578125
vt 0.609375 0.59375
vt 0.640625 0.59375
vt 0.640625 0.578125
vt 0.734375 0.578125
vt 0.734375 0.59375
vt 0.765625 0.59375
vt 0.765625 0.578125
vt 0.859375 0.578125
vt 0.859375 0.59375
vt 0.890625 0.59375
vt 0.890625 0.578125
vt 0.984375 0.578125
vt 0.984375 0.59375
vt 0.015625 0.640625
vt 0.015625 0.625
vt 0.109375 0.625
vt 0.109375 0.640625
vt 0.140625 0.640625
vt 0.140625 0.625
vt 0.234375 0.625
vt 0.234375 0.640625
vt 0.265625 0.640625
vt 0.265625 0.625
vt 0.359375 0.625
vt 0.359375 0.640625
vt 0.390625 0.640625
vt 0.390625 0.625
vt 0.484375 0.625
vt 0.484375 0.640625
vt 0.515625 0.640625
vt 0.515625 0.625
vt 0.609375 0.625
vt 0.609375 0.640625
vt 0.640625 0.640625
vt 0.640625 0.625
vt 0.734375 0.625
vt 0.734375 0.640625
vt 0.765625 0.640625
vt 0.765625 0.625
vt 0.859375 0.625
vt 0.859375 0.640625
vt 0.890625 0.640625
vt 0.890625 0.625
vt 0.984375 0.625
vt 0.984375 0.640625
vt 0.015625 0.6875
vt 0.015625 0.671875
vt 0.109375 0.671875
vt 0.109375 0.6875
vt 0.140625 0.6875
vt 0.140625 0.671875
vt 0.234375 0.671875
vt 0.234375 0.6875
vt 0.265625 0.6875
vt 0.265625 0.671875
vt 0.359375 0.671875
vt 0.359375 0.6875
vt 0.953125 0.21875
vt 0.953125 0.203125
vt 0.984375 0.203125
vt 0.984375 0.21875
vt 0.953125 0.453125
vt 0.953125 0.4375
vt 0.984375 0.4375
vt 0.984375 0.453125
vt 0.953125 0.5
vt 0.953125 0.484375
vt 0.984375 0.484375
vt 0.984375 0.5
vt 0.921875 0.546875
vt 0.921875 0.53125
vt 0.953125 0.53125
vt 0.953125 0.546875
vt 0.390625 0.6875
vt 0.390625 0.671875
vt 0.421875 0.671875
vt 0.421875 0.6875
vt 0.453125 0.6875
vt 0.453125 0.671875
vt 0.484375 0.671875
vt 0.484375 0.6875
vt 0.515625 0.6875
vt 0.515625 0.671875
vt 0.546875 0.671875
vt 0.546875 0.6875
vt 0.578125 0.6875
vt 0.578125 0.671875
vt 0.609375 0.671875
vt 0.609375 0.6875
vt 0.640625 0.6875
vt 0.640625 0.671875
vt 0.65625 0.671875
vt 0.65625 0.6875
vt 0.6875 0.6875
vt 0.6875 0.671875
vt 0.703125 0.671875
vt 0.703125 0.6875
vt 0.734375 0.6875
vt 0.734375 0.671875
vt 0.75 0.671875
vt 0.75 0.6875
vt 0.78125 0.6875
vt 0.78125 0.671875
vt 0.796875 0.671875
vt 0.796875 0.6875
vt 0.828125 0.6875
vt 0.828125 0.671875
vt 0.84375 0.671875
vt 0.84375 0.6875
vt 0.875 0.6875
vt 0.875 0.671875
vt 0.890625 0.671875
vt 0.890625 0.6875
vt 0.921875 0.6875
vt 0.921875 0.671875
vt 0.9375 0.671875
vt 0.9375 0.6875
vt 0.96875 0.6875
vt 0.96875 0.671875
vt 0.984375 0.671875
vt 0.984375 0.6875
vt 0.015625 0.734375
vt 0.015625 0.71875
vt 0.03125 0.71875
vt 0.03125 0.734375
vt 0.0625 0.734375
vt 0.0625 0.71875
vt 0.078125 0.71875
vt 0.078125 0.734375
vt 0.109375 0.734375
vt 0.109375 0.71875
vt 0.125 0.71875
vt 0.125 0.734375
vt 0.15625 0.734375
vt 0.15625 0.71875
vt 0.171875 0.71875
vt 0.171875 0.734375
vt 0.203125 0.734375
vt 0.203125 0.71875
vt 0.21875 0.71875
vt 0.21875 0.734375
vt 0.25 0.734375
vt 0.25 0.71875
vt 0.265625 0.71875
vt 0.265625 0.734375
vt 0.296875 0.734375
vt 0.296875 0.71875
vt 0.3125 0.71875
vt 0.3125 0.734375
vt 0.34375 0.734375
vt 0.34375 0.71875
vt 0.359375 0.71875
vt 0.359375 0.734375
vt 0.390625 0.734375
vt 0.390625 0.71875
vt 0.40625 0.71875
vt 0.40625 0.734375
vt 0.4375 0.734375
vt 0.4375 0.71875
vt 0.453125 0.71875
vt 0.453125 0.734375
vt 0.484375 0.734375
vt 0.484375 0.71875
vt 0.5 0.71875
vt 0.5 0.734375
vt 0.53125 0.734375
vt 0.53125 0.71875
vt 0.546875 0.71875
vt 0.546875 0.734375
vt 0.578125 0.734375
vt 0.578125 0.71875
vt 0.59375 0.71875
vt 0.59375 0.734375
vt 0.625 0.734375
vt 0.625 0.71875
vt 0.640625 0.71875
vt 0.640625 0.734375
vt 0.671875 0.734375
vt 0.671875 0.71875
vt 0.6875 0.71875
vt 0.6875 0.734375
vt 0.71875 0.734375
vt 0.71875 0.71875
vt 0.734375 0.71875
vt 0.734375 0.734375
vt 0.765625 0.734375
vt 0.765625 0.71875
vt 0.78125 0.71875
vt 0.78125 0.734375
vt 0.8125 0.734375
vt 0.8125 0.71875
vt 0.828125 0.71875
vt 0.828125 0.734375
vt 0.859375 0.734375
vt 0.859375 0.71875
vt 0.875 0.71875
vt 0.875 0.734375
vt 0.90625 0.734375
vt 0.90625 0.71875
vt 0.921875 0.71875
vt 0.921875 0.734375
f 1/69/1 2/70/1 3/71/1 4/72/1
f 5/21/1 6/22/1 7/23/1 8/24/1
f 9/25/1 10/26/1 11/27/1 12/28/1
f 13/29/1 14/30/1 15/31/1 16/32/1
f 17/17/1 18/18/1 19/19/1 20/20/1
f 8/173/1 21/174/1 22/175/1 13/176/1
f 23/165/1 7/166/1 14/167/1 24/168/1
f 25/61/1 26/62/1 27/63/1 28/64/1
f 12/153/1 29/154/1 30/155/1 17/156/1
f 31/213/1 11/214/1 18/215/1 32/216/1
f 33/37/1 34/38/1 35/39/1 36/40/1
f 28/241/1 37/242/1 38/243/1 39/244/1
f 40/221/1 27/222/1 41/223/1 42/224/1
f 36/225/1 43/226/1 44/227/1 45/228/1
f 46/217/1 35/218/1 47/219/1 48/220/1
f 39/49/1 41/50/1 49/51/1 50/52/1
f 45/53/1 47/54/1 51/55/1 52/56/1
f 53/317/1 54/318/1 55/319/1 56/320/1
f 57/313/1 58/314/1 59/315/1 60/316/1
f 61/417/1 62/418/1 63/419/1 64/420/1
f 65/421/1 66/422/1 67/423/1 68/424/1
f 69/409/1 70/410/1 71/411/1 72/412/1
f 73/413/1 74/414/1 75/415/1 76/416/1
f 46/65/2 43/66/2 44/67/2 48/68/2
f 77/5/2 78/6/2 79/7/2 80/8/2
f 81/1/2 82/2/2 83/3/2 84/4/2
f 85/13/2 86/14/2 87/15/2 88/16/2
f 89/9/2 90/10/2 91/11/2 92/12/2
f 61/201/2 79/202/2 86/203/2 72/204/2
f 80/205/2 66/206/2 75/207/2 85/208/2
f 23/41/2 21/42/2 93/43/2 94/44/2
f 25/193/2 83/194/2 90/195/2 50/196/2
f 84/197/2 26/198/2 49/199/2 89/200/2
f 31/33/2 29/34/2 95/35/2 96/36/2
f 97/229/2 93/230/2 98/231/2 99/232/2
f 94/245/2 100/246/2 101/247/2 102/248/2
f 103/233/2 95/234/2 104/235/2 105/236/2
f 96/237/2 106/238/2 107/239/2 108/240/2
f 102/45/2 98/46/2 22/47/2 24/48/2
f 108/57/2 104/58/2 30/59/2 32/60/2
f 53/297/2 109/298/2 110/299/2 56/300/2
f 111/309/2 58/310/2 59/311/2 112/312/2
f 113/433/2 114/434/2 115/435/2 116/436/2
f 117/337/2 118/338/2 119/339/2 120/340/2
f 121/333/2 122/334/2 123/335/2 124/336/2
f 125/369/2 126/370/2 127/371/2 128/372/2
f 5/73/3 78/74/3 77/75/3 6/76/3
f 9/77/3 82/78/3 81/79/3 10/80/3
f 22/109/3 72/110/3 75/111/3 24/112/3
f 30/105/3 50/106/3 49/107/3 32/108/3
f 25/181/3 21/182/3 23/183/3 26/184/3
f 33/177/3 29/178/3 31/179/3 34/180/3
f 1/285/3 43/286/3 46/287/3 2/288/3
f 38/293/3 99/294/3 101/295/3 42/296/3
f 44/289/3 105/290/3 107/291/3 48/292/3
f 61/393/3 114/394/3 113/395/3 62/396/3
f 65/389/3 118/390/3 117/391/3 66/392/3
f 57/401/3 109/402/3 53/403/3 58/404/3
f 59/397/3 56/398/3 55/399/3 112/400/3
f 69/377/3 122/378/3 121/379/3 70/380/3
f 73/373/3 126/374/3 125/375/3 74/376/3
f 15/85/4 88/86/4 87/87/4 16/88/4
f 19/97/4 92/98/4 91/99/4 20/100/4
f 23/117/4 66/118/4 61/119/4 21/120/4
f 31/113/4 26/114/4 25/115/4 29/116/4
f 40/257/4 100/258/4 97/259/4 37/260/4
f 46/261/4 106/262/4 103/263/4 43/264/4
f 3/249/4 48/250/4 44/251/4 4/252/4
f 49/189/4 24/190/4 22/191/4 50/192/4
f 51/209/4 32/210/4 30/211/4 52/212/4
f 63/385/4 116/386/4 115/387/4 64/388/4
f 67/381/4 120/382/4 119/383/4 68/384/4
f 111/405/4 54/406/4 53/407/4 58/408/4
f 59/429/4 56/430/4 110/431/4 60/432/4
f 71/425/4 124/426/4 123/427/4 72/428/4
f 75/437/4 128/438/4 127/439/4 76/440/4
f 16/93/5 87/94/5 78/95/5 5/96/5
f 20/81/5 91/82/5 82/83/5 9/84/5
f 32/101/5 49/102/5 26/103/5 31/104/5
f 58/137/5 129/138/5 66/139/5 130/140/5
f 24/185/5 131/186/5 130/187/5 23/188/5
f 50/169/5 22/170/5 21/171/5 25/172/5
f 52/157/5 30/158/5 29/159/5 33/160/5
f 42/253/5 101/254/5 100/255/5 40/256/5
f 48/265/5 107/266/5 106/267/5 46/268/5
f 4/277/5 44/278/5 43/279/5 1/280/5
f 131/141/5 75/142/5 132/143/5 59/144/5
f 56/305/5 132/306/5 129/307/5 53/308/5
f 60/301/5 110/302/5 109/303/5 57/304/5
f 64/329/5 115/330/5 114/331/5 61/332/5
f 68/341/5 119/342/5 118/343/5 65/344/5
f 72/361/5 123/362/5 122/363/5 69/364/5
f 76/365/5 127/366/5 126/367/5 73/368/5
f 10/89/6 81/90/6 92/91/6 19/92/6
f 21/121/6 61/122/6 72/123/6 22/124/6
f 29/125/6 25/126/6 50/127/6 30/128/6
f 6/145/6 133/146/6 134/147/6 15/148/6
f 133/129/6 77/130/6 135/131/6 111/132/6
f 26/161/6 23/162/6 24/163/6 49/164/6
f 34/149/6 31/150/6 32/151/6 51/152/6
f 37/281/6 97/282/6 99/283/6 38/284/6
f 43/269/6 103/270/6 105/271/6 44/272/6
f 2/273/6 46/274/6 48/275/6 3/276/6
f 112/133/6 136/134/6 88/135/6 134/136/6
f 54/321/6 135/322/6 136/323/6 55/324/6
f 58/325/6 53/326/6 56/327/6 59/328/6
f 62/357/6 113/358/6 116/359/6 63/360/6
f 66/345/6 117/346/6 120/347/6 67/348/6
f 70/349/6 121/350/6 124/351/6 71/352/6
f 74/353/6 125/354/6 128/355/6 75/356/6
