mtllib honey_pot.mtl
o Matrix_29
g Matrix_29
usemtl honey_pot_AtlasMaterial
v -3.5 1.5 -3.5
v -3.5 1.5 3.5
v 3.5 1.5 3.5
v 3.5 1.5 -3.5
v -2.5 8.5 0.5
v -2.5 8.5 1.5
v 2.5 8.5 1.5
v 2.5 8.5 0.5
v -1.5 8.5 -2.5
v -1.5 8.5 -0.5
v 1.5 8.5 -0.5
v 1.5 8.5 -2.5
v -4.5 8.5 -2.5
v -4.5 8.5 1.5
v -3.5 8.5 1.5
v -3.5 8.5 -2.5
v -3.5 9.5 -1.5
v -3.5 9.5 1.5
v -2.5 9.5 1.5
v -2.5 9.5 -1.5
v -2.5 8.5 3.5
v -2.5 8.5 4.5
v 1.5 8.5 4.5
v 1.5 8.5 3.5
v -1.5 8.5 -4.5
v -1.5 8.5 -3.5
v 2.5 8.5 -3.5
v 2.5 8.5 -4.5
v -1.5 8.5 0.5
v 2.5 8.5 -0.5
v -1.5 8.5 1.5
v -1.5 8.5 2.5
v 1.5 8.5 2.5
v 1.5 8.5 1.5
v -1.5 9.5 -3.5
v -1.5 9.5 -2.5
v 1.5 9.5 -2.5
v 1.5 9.5 -3.5
v -1.5 9.5 2.5
v -1.5 9.5 3.5
v 1.5 9.5 3.5
v 1.5 9.5 2.5
v 2.5 9.5 -1.5
v 2.5 9.5 1.5
v 3.5 9.5 1.5
v 3.5 9.5 -1.5
v 3.5 8.5 -1.5
v 3.5 8.5 2.5
v 4.5 8.5 2.5
v 4.5 8.5 -1.5
v -4.5 8.5 2.5
v -2.5 8.5 2.5
v -3.5 8.5 -3.5
v -3.5 8.5 -1.5
v -2.5 8.5 -1.5
v -2.5 8.5 -3.5
v -3.5 8.5 2.5
v -3.5 8.5 3.5
v -1.5 8.5 3.5
v -2.5 8.5 -4.5
v -2.5 8.5 -2.5
v -1.5 8.5 -1.5
v 1.5 8.5 -3.5
v 3.5 8.5 -2.5
v 3.5 8.5 -3.5
v 2.5 8.5 4.5
v 2.5 8.5 2.5
v 2.5 8.5 -2.5
v 2.5 8.5 -1.5
v 4.5 8.5 -2.5
v 2.5 8.5 3.5
v 3.5 8.5 3.5
v 3.5 8.5 1.5
v -4.5 7.5 -3.5
v -4.5 7.5 -2.5
v -3.5 7.5 -2.5
v -3.5 7.5 -3.5
v -4.5 7.5 2.5
v -4.5 7.5 3.5
v -3.5 7.5 3.5
v -3.5 7.5 2.5
v -3.5 7.5 -4.5
v -2.5 7.5 -3.5
v -2.5 7.5 -4.5
v -3.5 7.5 4.5
v -2.5 7.5 4.5
v -2.5 7.5 3.5
v -2.5 9.5 -2.5
v -1.5 9.5 -1.5
v -2.5 9.5 2.5
v -1.5 9.5 1.5
v 1.5 8.5 -1.5
v 1.5 9.5 -1.5
v 2.5 9.5 -2.5
v 1.5 9.5 1.5
v 2.5 9.5 2.5
v 2.5 7.5 -4.5
v 2.5 7.5 -3.5
v 3.5 7.5 -3.5
v 3.5 7.5 -4.5
v 2.5 7.5 3.5
v 2.5 7.5 4.5
v 3.5 7.5 4.5
v 3.5 7.5 3.5
v 3.5 7.5 -2.5
v 4.5 7.5 -2.5
v 4.5 7.5 -3.5
v 3.5 7.5 2.5
v 4.5 7.5 3.5
v 4.5 7.5 2.5
v -3.5 0.5 3.5
v -3.5 0.5 -3.5
v 3.5 0.5 -3.5
v 3.5 0.5 3.5
v -4.5 1.5 3.5
v -4.5 1.5 -3.5
v -3.5 1.5 -4.5
v 3.5 1.5 -4.5
v -3.5 1.5 4.5
v 3.5 1.5 4.5
v 4.5 1.5 -3.5
v 4.5 1.5 3.5
vn 0.0 1.0 0.0
vn 0.0 -1.0 0.0
vn -1.0 0.0 0.0
vn 1.0 0.0 0.0
vn 0.0 0.0 -1.0
vn 0.0 0.0 1.0
vt 0.015625 0.125
vt 0.015625 0.015625
vt 0.125 0.015625
vt 0.125 0.125
vt 0.15625 0.125
vt 0.15625 0.015625
vt 0.265625 0.015625
vt 0.265625 0.125
vt 0.296875 0.125
vt 0.296875 0.015625
vt 0.40625 0.015625
vt 0.40625 0.125
vt 0.4375 0.125
vt 0.4375 0.015625
vt 0.453125 0.015625
vt 0.453125 0.125
vt 0.484375 0.125
vt 0.484375 0.015625
vt 0.5 0.015625
vt 0.5 0.125
vt 0.53125 0.109375
vt 0.53125 0.015625
vt 0.640625 0.015625
vt 0.640625 0.109375
vt 0.671875 0.109375
vt 0.671875 0.015625
vt 0.78125 0.015625
vt 0.78125 0.109375
vt 0.8125 0.109375
vt 0.8125 0.015625
vt 0.921875 0.015625
vt 0.921875 0.109375
vt 0.015625 0.25
vt 0.015625 0.15625
vt 0.125 0.15625
vt 0.125 0.25
vt 0.15625 0.25
vt 0.15625 0.15625
vt 0.265625 0.15625
vt 0.265625 0.25
vt 0.296875 0.25
vt 0.296875 0.15625
vt 0.40625 0.15625
vt 0.40625 0.25
vt 0.4375 0.25
vt 0.4375 0.15625
vt 0.546875 0.15625
vt 0.546875 0.25
vt 0.578125 0.25
vt 0.578125 0.15625
vt 0.6875 0.15625
vt 0.6875 0.25
vt 0.953125 0.109375
vt 0.953125 0.015625
vt 0.96875 0.015625
vt 0.96875 0.109375
vt 0.71875 0.25
vt 0.71875 0.15625
vt 0.734375 0.15625
vt 0.734375 0.25
vt 0.765625 0.25
vt 0.765625 0.15625
vt 0.78125 0.15625
vt 0.78125 0.25
vt 0.8125 0.25
vt 0.8125 0.15625
vt 0.828125 0.15625
vt 0.828125 0.25
vt 0.859375 0.25
vt 0.859375 0.15625
vt 0.875 0.15625
vt 0.875 0.25
vt 0.90625 0.25
vt 0.90625 0.15625
vt 0.921875 0.15625
vt 0.921875 0.25
vt 0.953125 0.25
vt 0.953125 0.15625
vt 0.96875 0.15625
vt 0.96875 0.25
vt 0.015625 0.375
vt 0.015625 0.28125
vt 0.03125 0.28125
vt 0.03125 0.375
vt 0.0625 0.34375
vt 0.0625 0.28125
vt 0.078125 0.28125
vt 0.078125 0.34375
vt 0.109375 0.34375
vt 0.109375 0.28125
vt 0.125 0.28125
vt 0.125 0.34375
vt 0.15625 0.328125
vt 0.15625 0.28125
vt 0.171875 0.28125
vt 0.171875 0.328125
vt 0.203125 0.328125
vt 0.203125 0.28125
vt 0.21875 0.28125
vt 0.21875 0.328125
vt 0.25 0.3125
vt 0.25 0.28125
vt 0.296875 0.28125
vt 0.296875 0.3125
vt 0.328125 0.3125
vt 0.328125 0.28125
vt 0.34375 0.28125
vt 0.34375 0.3125
vt 0.375 0.3125
vt 0.375 0.28125
vt 0.390625 0.28125
vt 0.390625 0.3125
vt 0.421875 0.3125
vt 0.421875 0.28125
vt 0.4375 0.28125
vt 0.4375 0.3125
vt 0.46875 0.3125
vt 0.46875 0.28125
vt 0.484375 0.28125
vt 0.484375 0.3125
vt 0.515625 0.3125
vt 0.515625 0.28125
vt 0.53125 0.28125
vt 0.53125 0.3125
vt 0.5625 0.296875
vt 0.5625 0.28125
vt 0.671875 0.28125
vt 0.671875 0.296875
vt 0.703125 0.296875
vt 0.703125 0.28125
vt 0.8125 0.28125
vt 0.8125 0.296875
vt 0.84375 0.296875
vt 0.84375 0.28125
vt 0.953125 0.28125
vt 0.953125 0.296875
vt 0.015625 0.421875
vt 0.015625 0.40625
vt 0.125 0.40625
vt 0.125 0.421875
vt 0.15625 0.421875
vt 0.15625 0.40625
vt 0.265625 0.40625
vt 0.265625 0.421875
vt 0.296875 0.421875
vt 0.296875 0.40625
vt 0.40625 0.40625
vt 0.40625 0.421875
vt 0.4375 0.421875
vt 0.4375 0.40625
vt 0.515625 0.40625
vt 0.515625 0.421875
vt 0.546875 0.421875
vt 0.546875 0.40625
vt 0.625 0.40625
vt 0.625 0.421875
vt 0.65625 0.421875
vt 0.65625 0.40625
vt 0.734375 0.40625
vt 0.734375 0.421875
vt 0.765625 0.421875
vt 0.765625 0.40625
vt 0.84375 0.40625
vt 0.84375 0.421875
vt 0.875 0.421875
vt 0.875 0.40625
vt 0.953125 0.40625
vt 0.953125 0.421875
vt 0.015625 0.46875
vt 0.015625 0.453125
vt 0.078125 0.453125
vt 0.078125 0.46875
vt 0.109375 0.46875
vt 0.109375 0.453125
vt 0.171875 0.453125
vt 0.171875 0.46875
vt 0.203125 0.46875
vt 0.203125 0.453125
vt 0.265625 0.453125
vt 0.265625 0.46875
vt 0.296875 0.46875
vt 0.296875 0.453125
vt 0.34375 0.453125
vt 0.34375 0.46875
vt 0.375 0.46875
vt 0.375 0.453125
vt 0.421875 0.453125
vt 0.421875 0.46875
vt 0.453125 0.46875
vt 0.453125 0.453125
vt 0.5 0.453125
vt 0.5 0.46875
vt 0.53125 0.46875
vt 0.53125 0.453125
vt 0.578125 0.453125
vt 0.578125 0.46875
vt 0.609375 0.46875
vt 0.609375 0.453125
vt 0.65625 0.453125
vt 0.65625 0.46875
vt 0.6875 0.46875
vt 0.6875 0.453125
vt 0.734375 0.453125
vt 0.734375 0.46875
vt 0.765625 0.46875
vt 0.765625 0.453125
vt 0.8125 0.453125
vt 0.8125 0.46875
vt 0.84375 0.46875
vt 0.84375 0.453125
vt 0.890625 0.453125
vt 0.890625 0.46875
vt 0.921875 0.46875
vt 0.921875 0.453125
vt 0.96875 0.453125
vt 0.96875 0.46875
vt 0.015625 0.515625
vt 0.015625 0.5
vt 0.0625 0.5
vt 0.0625 0.515625
vt 0.09375 0.515625
vt 0.09375 0.5
vt 0.140625 0.5
vt 0.140625 0.515625
vt 0.171875 0.515625
vt 0.171875 0.5
vt 0.203125 0.5
vt 0.203125 0.515625
vt 0.234375 0.515625
vt 0.234375 0.5
vt 0.265625 0.5
vt 0.265625 0.515625
vt 0.296875 0.515625
vt 0.296875 0.5
vt 0.328125 0.5
vt 0.328125 0.515625
vt 0.359375 0.515625
vt 0.359375 0.5
vt 0.390625 0.5
vt 0.390625 0.515625
vt 0.421875 0.515625
vt 0.421875 0.5
vt 0.4375 0.5
vt 0.4375 0.515625
vt 0.46875 0.515625
vt 0.46875 0.5
vt 0.484375 0.5
vt 0.484375 0.515625
vt 0.515625 0.515625
vt 0.515625 0.5
vt 0.53125 0.5
vt 0.53125 0.515625
vt 0.5625 0.515625
vt 0.5625 0.5
vt 0.578125 0.5
vt 0.578125 0.515625
vt 0.609375 0.515625
vt 0.609375 0.5
vt 0.625 0.5
vt 0.625 0.515625
vt 0.65625 0.515625
vt 0.65625 0.5
vt 0.671875 0.5
vt 0.671875 0.515625
vt 0.703125 0.515625
vt 0.703125 0.5
vt 0.71875 0.5
vt 0.71875 0.515625
vt 0.75 0.515625
vt 0.75 0.5
vt 0.765625 0.5
vt 0.765625 0.515625
vt 0.796875 0.515625
vt 0.796875 0.5
vt 0.8125 0.5
vt 0.8125 0.515625
vt 0.84375 0.515625
vt 0.84375 0.5
vt 0.859375 0.5
vt 0.859375 0.515625
vt 0.890625 0.515625
vt 0.890625 0.5
vt 0.90625 0.5
vt 0.90625 0.515625
vt 0.9375 0.515625
vt 0.9375 0.5
vt 0.953125 0.5
vt 0.953125 0.515625
vt 0.015625 0.5625
vt 0.015625 0.546875
vt 0.03125 0.546875
vt 0.03125 0.5625
vt 0.0625 0.5625
vt 0.0625 0.546875
vt 0.078125 0.546875
vt 0.078125 0.5625
vt 0.109375 0.5625
vt 0.109375 0.546875
vt 0.125 0.546875
vt 0.125 0.5625
vt 0.15625 0.5625
vt 0.15625 0.546875
vt 0.171875 0.546875
vt 0.171875 0.5625
vt 0.203125 0.5625
vt 0.203125 0.546875
vt 0.21875 0.546875
vt 0.21875 0.5625
vt 0.25 0.5625
vt 0.25 0.546875
vt 0.265625 0.546875
vt 0.265625 0.5625
vt 0.296875 0.5625
vt 0.296875 0.546875
vt 0.3125 0.546875
vt 0.3125 0.5625
vt 0.34375 0.5625
vt 0.34375 0.546875
vt 0.359375 0.546875
vt 0.359375 0.5625
vt 0.390625 0.5625
vt 0.390625 0.546875
vt 0.40625 0.546875
vt 0.40625 0.5625
vt 0.4375 0.5625
vt 0.4375 0.546875
vt 0.453125 0.546875
vt 0.453125 0.5625
vt 0.484375 0.5625
vt 0.484375 0.546875
vt 0.5 0.546875
vt 0.5 0.5625
vt 0.53125 0.5625
vt 0.53125 0.546875
vt 0.546875 0.546875
vt 0.546875 0.5625
vt 0.578125 0.5625
vt 0.578125 0.546875
vt 0.59375 0.546875
vt 0.59375 0.5625
vt 0.625 0.5625
vt 0.625 0.546875
vt 0.640625 0.546875
vt 0.640625 0.5625
vt 0.671875 0.5625
vt 0.671875 0.546875
vt 0.6875 0.546875
vt 0.6875 0.5625
vt 0.71875 0.5625
vt 0.71875 0.546875
vt 0.734375 0.546875
vt 0.734375 0.5625
vt 0.765625 0.5625
vt 0.765625 0.546875
vt 0.78125 0.546875
vt 0.78125 0.5625
vt 0.8125 0.5625
vt 0.8125 0.546875
vt 0.828125 0.546875
vt 0.828125 0.5625
vt 0.859375 0.5625
vt 0.859375 0.546875
vt 0.875 0.546875
vt 0.875 0.5625
vt 0.90625 0.5625
vt 0.90625 0.546875
vt 0.921875 0.546875
vt 0.921875 0.5625
vt 0.953125 0.5625
vt 0.953125 0.546875
vt 0.96875 0.546875
vt 0.96875 0.5625
vt 0.015625 0.609375
vt 0.015625 0.59375
vt 0.03125 0.59375
vt 0.03125 0.609375
vt 0.0625 0.609375
vt 0.0625 0.59375
vt 0.078125 0.59375
vt 0.078125 0.609375
vt 0.109375 0.609375
vt 0.109375 0.59375
vt 0.125 0.59375
vt 0.125 0.609375
vt 0.15625 0.609375
vt 0.15625 0.59375
vt 0.171875 0.59375
vt 0.171875 0.609375
vt 0.203125 0.609375
vt 0.203125 0.59375
vt 0.21875 0.59375
vt 0.21875 0.609375
vt 0.25 0.609375
vt 0.25 0.59375
vt 0.265625 0.59375
vt 0.265625 0.609375
vt 0.296875 0.609375
vt 0.296875 0.59375
vt 0.3125 0.59375
vt 0.3125 0.609375
vt 0.34375 0.609375
vt 0.34375 0.59375
vt 0.359375 0.59375
vt 0.359375 0.609375
vt 0.390625 0.609375
vt 0.390625 0.59375
vt 0.40625 0.59375
vt 0.40625 0.609375
vt 0.4375 0.609375
vt 0.4375 0.59375
vt 0.453125 0.59375
vt 0.453125 0.609375
vt 0.484375 0.609375
vt 0.484375 0.59375
vt 0.5 0.59375
vt 0.5 0.609375
vt 0.53125 0.609375
vt 0.53125 0.59375
vt 0.546875 0.59375
vt 0.546875 0.609375
vt 0.578125 0.609375
vt 0.578125 0.59375
vt 0.59375 0.59375
vt 0.59375 0.609375
vt 0.625 0.609375
vt 0.625 0.59375
vt 0.640625 0.59375
vt 0.640625 0.609375
vt 0.671875 0.609375
vt 0.671875 0.59375
vt 0.6875 0.59375
vt 0.6875 0.609375
vt 0.71875 0.609375
vt 0.71875 0.59375
vt 0.734375 0.59375
vt 0.734375 0.609375
vt 0.765625 0.609375
vt 0.765625 0.59375
vt 0.78125 0.59375
vt 0.78125 0.609375
vt 0.8125 0.609375
vt 0.8125 0.59375
vt 0.828125 0.59375
vt 0.828125 0.609375
vt 0.859375 0.609375
vt 0.859375 0.59375
vt 0.875 0.59375
vt 0.875 0.609375
vt 0.90625 0.609375
vt 0.90625 0.59375
vt 0.921875 0.59375
vt 0.921875 0.609375
f 1/9/1 2/10/1 3/11/1 4/12/1
f 5/153/1 6/154/1 7/155/1 8/156/1
f 9/101/1 10/102/1 11/103/1 12/104/1
f 13/85/1 14/86/1 15/87/1 16/88/1
f 17/93/1 18/94/1 19/95/1 20/96/1
f 21/173/1 22/174/1 23/175/1 24/176/1
f 25/169/1 26/170/1 27/171/1 28/172/1
f 10/177/1 29/178/1 8/179/1 30/180/1
f 31/197/1 32/198/1 33/199/1 34/200/1
f 35/201/1 36/202/1 37/203/1 38/204/1
f 39/205/1 40/206/1 41/207/1 42/208/1
f 43/97/1 44/98/1 45/99/1 46/100/1
f 47/89/1 48/90/1 49/91/1 50/92/1
f 14/233/1 51/234/1 52/235/1 6/236/1
f 53/105/1 54/106/1 55/107/1 56/108/1
f 57/237/1 58/238/1 59/239/1 32/240/1
f 60/113/1 61/114/1 9/115/1 25/116/1
f 55/117/1 5/118/1 29/119/1 62/120/1
f 63/225/1 12/226/1 64/227/1 65/228/1
f 33/121/1 23/122/1 66/123/1 67/124/1
f 68/229/1 69/230/1 50/231/1 70/232/1
f 7/109/1 71/110/1 72/111/1 73/112/1
f 74/249/1 75/250/1 76/251/1 77/252/1
f 78/253/1 79/254/1 80/255/1 81/256/1
f 82/241/1 77/242/1 83/243/1 84/244/1
f 80/245/1 85/246/1 86/247/1 87/248/1
f 88/257/1 20/258/1 89/259/1 36/260/1
f 19/281/1 90/282/1 39/283/1 91/284/1
f 92/277/1 11/278/1 30/279/1 69/280/1
f 37/289/1 93/290/1 43/291/1 94/292/1
f 95/285/1 42/286/1 96/287/1 44/288/1
f 97/265/1 98/266/1 99/267/1 100/268/1
f 101/269/1 102/270/1 103/271/1 104/272/1
f 99/273/1 105/274/1 106/275/1 107/276/1
f 108/261/1 104/262/1 109/263/1 110/264/1
f 111/5/2 112/6/2 113/7/2 114/8/2
f 80/1/2 77/2/2 99/3/2 104/4/2
f 115/17/2 116/18/2 1/19/2 2/20/2
f 1/133/2 117/134/2 118/135/2 4/136/2
f 119/125/2 2/126/2 3/127/2 120/128/2
f 3/13/2 4/14/2 121/15/2 122/16/2
f 74/37/3 116/38/3 115/39/3 79/40/3
f 99/41/3 4/42/3 3/43/3 104/44/3
f 13/165/3 75/166/3 78/167/3 51/168/3
f 1/129/3 112/130/3 111/131/3 2/132/3
f 82/69/3 117/70/3 1/71/3 77/72/3
f 80/65/3 2/66/3 119/67/3 85/68/3
f 17/209/3 54/210/3 15/211/3 18/212/3
f 43/213/3 69/214/3 7/215/3 44/216/3
f 53/397/3 77/398/3 76/399/3 16/400/3
f 57/393/3 81/394/3 80/395/3 58/396/3
f 60/401/3 84/402/3 83/403/3 56/404/3
f 21/409/3 87/410/3 86/411/3 22/412/3
f 88/405/3 61/406/3 55/407/3 20/408/3
f 19/377/3 6/378/3 52/379/3 90/380/3
f 35/373/3 26/374/3 9/375/3 36/376/3
f 39/381/3 32/382/3 59/383/3 40/384/3
f 37/389/3 12/390/3 92/391/3 93/392/3
f 95/385/3 34/386/3 33/387/3 42/388/3
f 80/49/4 2/50/4 1/51/4 77/52/4
f 109/45/4 122/46/4 121/47/4 107/48/4
f 3/137/4 114/138/4 113/139/4 4/140/4
f 99/57/4 4/58/4 118/59/4 100/60/4
f 103/53/4 120/54/4 3/55/4 104/56/4
f 49/149/4 110/150/4 106/151/4 70/152/4
f 19/181/4 6/182/4 55/183/4 20/184/4
f 45/185/4 73/186/4 47/187/4 46/188/4
f 89/437/4 62/438/4 9/439/4 36/440/4
f 39/433/4 32/434/4 31/435/4 91/436/4
f 37/441/4 12/442/4 63/443/4 38/444/4
f 41/449/4 24/450/4 33/451/4 42/452/4
f 27/445/4 98/446/4 97/447/4 28/448/4
f 66/417/4 102/418/4 101/419/4 71/420/4
f 43/413/4 69/414/4 68/415/4 94/416/4
f 96/421/4 67/422/4 7/423/4 44/424/4
f 64/429/4 105/430/4 99/431/4 65/432/4
f 72/425/4 104/426/4 108/427/4 48/428/4
f 100/33/5 118/34/5 117/35/5 82/36/5
f 104/29/5 3/30/5 2/31/5 80/32/5
f 77/73/5 1/74/5 116/75/5 74/76/5
f 4/141/5 113/142/5 112/143/5 1/144/5
f 28/161/5 97/162/5 84/163/5 60/164/5
f 107/61/5 121/62/5 4/63/5 99/64/5
f 38/221/5 63/222/5 26/223/5 35/224/5
f 42/217/5 33/218/5 32/219/5 39/220/5
f 16/317/5 76/318/5 75/319/5 13/320/5
f 56/313/5 83/314/5 77/315/5 53/316/5
f 20/321/5 55/322/5 54/323/5 17/324/5
f 36/329/5 9/330/5 61/331/5 88/332/5
f 91/325/5 31/326/5 6/327/5 19/328/5
f 94/297/5 68/298/5 12/299/5 37/300/5
f 44/293/5 7/294/5 34/295/5 95/296/5
f 65/301/5 99/302/5 98/303/5 27/304/5
f 46/309/5 47/310/5 69/311/5 43/312/5
f 70/305/5 106/306/5 105/307/5 64/308/5
f 77/21/6 1/22/6 4/23/6 99/24/6
f 85/25/6 119/26/6 120/27/6 103/28/6
f 79/77/6 115/78/6 2/79/6 80/80/6
f 2/145/6 111/146/6 114/147/6 3/148/6
f 22/157/6 86/158/6 102/159/6 66/160/6
f 104/81/6 3/82/6 122/83/6 109/84/6
f 36/193/6 9/194/6 12/195/6 37/196/6
f 40/189/6 59/190/6 24/191/6 41/192/6
f 51/357/6 78/358/6 81/359/6 57/360/6
f 58/353/6 80/354/6 87/355/6 21/356/6
f 18/361/6 15/362/6 6/363/6 19/364/6
f 20/369/6 55/370/6 62/371/6 89/372/6
f 90/365/6 52/366/6 32/367/6 39/368/6
f 93/337/6 92/338/6 69/339/6 43/340/6
f 42/333/6 33/334/6 67/335/6 96/336/6
f 71/341/6 101/342/6 104/343/6 72/344/6
f 44/349/6 7/350/6 73/351/6 45/352/6
f 48/345/6 108/346/6 110/347/6 49/348/6
